<svg xmlns="http://www.w3.org/2000/svg" width="268.79999" height="333.19901" viewBox="0 0 268.79999 333.19901">
  <g id="Layer_2" data-name="Layer 2">
    <g id="Layer_1-2" data-name="Layer 1">
      <path d="M134.4,0A195.58867,195.58867,0,0,1,0,53.199v174.72c22.699,56.695,76.176,88.648,134.4,105.28,58.234-16.637,111.7-48.59,134.4-105.28V53.199A195.596,195.596,0,0,1,134.4,0Zm0,309.68c-16.348-4.57419-59.348-13.844-93.52-56.559a107.20445,107.20445,0,0,1,72.801-52.641c-23.52-7.83981-40.883-30.801-40.883-57.68a61.602,61.602,0,1,1,123.204,0,62.08731,62.08731,0,0,1-40.879,58.238,107.21772,107.21772,0,0,1,72.801,52.633c-26.938,32.766-56.703,47.176-93.523,56.008Z" fill="#fff"/>
    </g>
  </g>
</svg>
