<svg xmlns="http://www.w3.org/2000/svg" width="487.48489" height="451.9273" viewBox="0 0 487.48489 451.9273">
  <g id="Layer_2" data-name="Layer 2">
    <g id="Layer_1-2" data-name="Layer 1">
      <g>
        <path d="M299.7507,33.0166a63.88265,63.88265,0,0,0-112,.0007l-179.67,323.57a64.16707,64.16707,0,0,0,55.99981,95.34h359.34a64.19073,64.19073,0,0,0,56.00037-95.34Zm148.77,369.41a28.94619,28.94619,0,0,1-25.153,14.3982H64.0777a29.19109,29.19109,0,0,1-25.48038-43.355l179.67-323.45a29.16842,29.16842,0,0,1,51.008,0l179.67,323.45h-.0039a28.9252,28.9252,0,0,1-.34772,28.957Z" fill="#fff"/>
        <path d="M243.7507,290.08461a17.49784,17.49784,0,0,0,17.5-17.5v-93.336a17.5,17.5,0,0,0-35,0v93.336a17.49784,17.49784,0,0,0,17.5,17.5Z" fill="#fff"/>
        <path d="M267.08069,342.58461a23.332,23.332,0,1,1-23.332-23.336,23.33062,23.33062,0,0,1,23.332,23.336" fill="#fff"/>
      </g>
    </g>
  </g>
</svg>
