<svg xmlns="http://www.w3.org/2000/svg" width="558.91582" height="420.30356" viewBox="0 0 558.91582 420.30356">
  <g id="Layer_2" data-name="Layer 2">
    <g id="Layer_1-2" data-name="Layer 1">
      <path d="M417.23217,130.97a11.57887,11.57887,0,0,1,16.375,16.375l-62.805,62.805,62.809,62.805a11.57887,11.57887,0,0,1-16.375,16.375l-62.805-62.805-62.816,62.809a11.57887,11.57887,0,0,1-16.375-16.375l62.816-62.816-62.816-62.812a11.57887,11.57887,0,0,1,16.375-16.375l62.816,62.816ZM182.77216,0V.043a11.4995,11.4995,0,0,0-8.68359,3.9375l-170.82,194.63a11.56035,11.56035,0,0,0-.53515,15.52l170.73,201.47a11.56517,11.56517,0,0,0,9.31641,4.7031h311.05a65.28413,65.28413,0,0,0,65.086-65.09v-290.13a65.33773,65.33773,0,0,0-65.082-65.082Zm311.05,23.164h-305.86l-161.16,183.62,161.3,190.35h305.71a42.10536,42.10536,0,0,0,41.922-41.926l.00391-290.13a42.01044,42.01044,0,0,0-41.926-41.918Z" fill="#fff" fill-rule="evenodd"/>
    </g>
  </g>
</svg>
