<svg xmlns="http://www.w3.org/2000/svg" width="524.99581" height="490.005" viewBox="0 0 524.99581 490.005">
  <g id="Layer_2" data-name="Layer 2">
    <g id="Layer_1-2" data-name="Layer 1">
      <g>
        <path d="M253.75,0h-210A43.74291,43.74291,0,0,0,0,43.75v52.5A8.74892,8.74892,0,0,0,8.75,105H17.5V446.25A43.74292,43.74292,0,0,0,61.25,490h175A43.74294,43.74294,0,0,0,280,446.25V105h8.75a8.74892,8.74892,0,0,0,8.75-8.75V43.75A43.74292,43.74292,0,0,0,253.75,0Zm8.75,446.25a26.327,26.327,0,0,1-26.24991,26.24988h-175A26.327,26.327,0,0,1,35.00019,446.25V420h227.5Zm0-43.75H35V175H262.5Zm0-245H35V105H262.5Zm17.5-70H17.5V43.75A26.327,26.327,0,0,1,43.74989,17.5001h210A26.32706,26.32706,0,0,1,279.99979,43.75Z" fill="#fff"/>
        <path d="M471.62,98.35a75.9313,75.9313,0,0,0,.875-10.852,70.07876,70.07876,0,1,0-86.539,67.988,62.49351,62.49351,0,0,0-.96093,10.762A70.00262,70.00262,0,1,0,471.62,98.35ZM350,87.498a52.4583,52.4583,0,0,1,82.863-42.78921l-73.152,73.152a52.07656,52.07656,0,0,1-9.71091-30.363Zm22.051,42.789,73.238-73.148v-.00391a52.07632,52.07632,0,0,1,9.71088,30.363,59.18119,59.18119,0,0,1-.78906,8.75,70.14415,70.14415,0,0,0-63.438,42.262,51.306,51.306,0,0,1-18.723-8.22271ZM455,218.748a52.45825,52.45825,0,0,1-42.78918-82.863l73.152,73.152a52.72614,52.72614,0,0,1-30.363,9.7109Zm42.789-22.137-73.152-73.152a52.458,52.458,0,0,1,73.1521,73.1521Z" fill="#fff"/>
        <path d="M148.75,26.25A8.75063,8.75063,0,0,0,140,35V70a8.75,8.75,0,0,0,17.5,0V35a8.74892,8.74892,0,0,0-8.75-8.75Z" fill="#fff"/>
        <path d="M183.75,26.25A8.75063,8.75063,0,0,0,175,35V70a8.75,8.75,0,0,0,17.5,0V35a8.74892,8.74892,0,0,0-8.75-8.75Z" fill="#fff"/>
        <path d="M218.75,26.25A8.75063,8.75063,0,0,0,210,35V70a8.75,8.75,0,0,0,17.5,0V35a8.74892,8.74892,0,0,0-8.75-8.75Z" fill="#fff"/>
        <path d="M253.75,26.25A8.75063,8.75063,0,0,0,245,35V70a8.75,8.75,0,0,0,17.5,0V35a8.74892,8.74892,0,0,0-8.75-8.75Z" fill="#fff"/>
        <path d="M113.75,26.25A8.75063,8.75063,0,0,0,105,35V70a8.75,8.75,0,0,0,17.5,0V35a8.74892,8.74892,0,0,0-8.75-8.75Z" fill="#fff"/>
        <path d="M78.75,26.25A8.75063,8.75063,0,0,0,70,35V70a8.75,8.75,0,0,0,17.5,0V35a8.74892,8.74892,0,0,0-8.75-8.75Z" fill="#fff"/>
        <path d="M43.75,26.25A8.75063,8.75063,0,0,0,35,35V70a8.75,8.75,0,0,0,17.5,0V35a8.74892,8.74892,0,0,0-8.75-8.75Z" fill="#fff"/>
        <path d="M490.61,399.09a52.5661,52.5661,0,0,0-13.824-49.086l-74.289-74.199a51.61654,51.61654,0,0,0-37.102-15.402,52.50269,52.50269,0,0,0-37.187,89.602l35,35H349.997a52.5,52.5,0,0,0,0,105h105a52.49353,52.49353,0,0,0,52.5-52.5,51.85627,51.85627,0,0,0-16.887-38.414Zm-26.25-36.664v.00391a34.88141,34.88141,0,0,1,10.148,26.426,51.65749,51.65749,0,0,0-19.512-3.8516H387.973l-4.02341-4.0234,49.438-49.523ZM340.63,337.578a35.00217,35.00217,0,0,1,24.761-59.676,34.19733,34.19733,0,0,1,24.676,10.238l30.977,30.887L371.521,368.64Zm53.113,134.93h-43.75a35,35,0,1,1,0-70h43.75Zm61.25,0h-43.75v-70h43.75a35,35,0,1,1,0,70Z" fill="#fff"/>
        <path d="M218.75,253.75h-35v-35A8.74892,8.74892,0,0,0,175,210H122.5a8.75063,8.75063,0,0,0-8.75,8.75v35h-35A8.75063,8.75063,0,0,0,70,262.5V315a8.74892,8.74892,0,0,0,8.75,8.75h35v35a8.74892,8.74892,0,0,0,8.75,8.75H175a8.74892,8.74892,0,0,0,8.75-8.75v-35h35A8.74892,8.74892,0,0,0,227.5,315V262.5a8.74892,8.74892,0,0,0-8.75-8.75ZM210,306.25H175a8.75063,8.75063,0,0,0-8.75,8.75v35h-35V315a8.74892,8.74892,0,0,0-8.75-8.75h-35v-35h35a8.74892,8.74892,0,0,0,8.75-8.75v-35h35v35a8.74892,8.74892,0,0,0,8.75,8.75h35Z" fill="#fff"/>
      </g>
    </g>
  </g>
</svg>
