<svg xmlns="http://www.w3.org/2000/svg" width="504.00002" height="504.00002" viewBox="0 0 504.00002 504.00002">
  <g id="Layer_2" data-name="Layer 2">
    <g id="Layer_1-2" data-name="Layer 1">
      <g>
        <path d="M240.8,0h-56a28.00381,28.00381,0,0,0-28,28V156.8H28a28.00381,28.00381,0,0,0-28,28v56H240.8Z" fill="#003554"/>
        <path d="M504,240.8v-56a27.99869,27.99869,0,0,0-28-28H347.2V28a27.99869,27.99869,0,0,0-28-28h-56V240.8Z" fill="#003554"/>
        <path d="M0,263.2v56a27.99869,27.99869,0,0,0,28,28H156.8V476a27.99867,27.99867,0,0,0,28,28h56V263.2Z" fill="#003554"/>
        <path d="M263.2,504h56a27.99358,27.99358,0,0,0,28-28V347.2H476a27.99358,27.99358,0,0,0,28-28v-56H263.2Z" fill="#003554"/>
      </g>
    </g>
  </g>
</svg>
