<svg xmlns="http://www.w3.org/2000/svg" width="519.74997" height="519.7504" viewBox="0 0 519.74997 519.7504">
  <g id="Layer_2" data-name="Layer 2">
    <g id="Layer_1-2" data-name="Layer 1">
      <g>
        <path d="M511.8757,455.9957h-40.125v-236.84c24.23,4.875,47.539-17.516,43.695-42.129l-16.273-90.773a31.84374,31.84374,0,0,0-31.379-26.25c-22.652-.01953-71.191.01172-94.133,0l-10.047-53.574V6.4258A7.8747,7.8747,0,0,0,355.87537,0h-192a7.8865,7.8865,0,0,0-7.7461,6.4375l-9.95309,53.562c-23.109.03516-71.441-.02343-94.223,0l.0039.00391a31.84368,31.84368,0,0,0-31.379,26.25l-16.336,91.188c-3.7148,24.188,19.758,46.664,43.754,41.719L48,456.0004H7.875A7.877,7.877,0,0,0,0,463.8754v48a7.877,7.877,0,0,0,7.875,7.875h504a7.877,7.877,0,0,0,7.875-7.875v-48a7.877,7.877,0,0,0-7.875-7.875Zm-28.207-366.97,16.211,90.363c2.78912,28.855-39.293,34.047-43.504,5.04691l-.62891-3.5781-.0039-.00391a33.32349,33.32349,0,0,0-.31641-3.8477l-18.137-101.26h30.508a16.112,16.112,0,0,1,15.8714,13.2812Zm-62.402-13.281,18.75,106.56c-.59765,27.113-40.238,29.273-43.652,2.0234l-.57813-2.98829c0-.11719-.02734-.23047-.03516-.34766-2.5625-20.664-15.438-83.797-19.141-105.25Zm-169.27,106.36a21.90578,21.90578,0,0,1-21.88308,21.887h-8.52341c-11.742.22656-22.035-10.043-21.836-21.832l3.96091-22.422,48.281-.00391Zm-68.703,2.7773c-3.63669,26.645-43.039,24.512-43.543-2.91409l3.957-22.223h43.738c-.44922,3.0273-3.6445,18.484-3.46481,21.25Zm84.453-25.137h48.285l3.96881,22.422c.26172,11.672-10.145,22.094-21.848,21.824h-8.52341A21.9058,21.9058,0,0,1,267.746,182.104Zm68,21.086c.1875-2.5938-3.02731-18.25-3.44918-21.086h43.734l3.9961,22.422c-.39844,27.129-40.164,29.465-43.629,2.3672Zm-165.33-165.09h178.93l24.047,128.25h-226.8Zm-41.047,134.69c0,.02735-4.5273,25.406-4.5312,25.449a11.88055,11.88055,0,0,0-.83985,4.957v.02344l-.69922,4.0234c-3.6094,26.547-42.84,24.57-43.527-2.74609l18.715-106.39h44.766Zm-104.19,46.156h.0039a21.7498,21.7498,0,0,1-5.375-16.793l16.273-90.77A16.112,16.112,0,0,1,51.953,75.74282H82.461l-18.137,101.26a34.14981,34.14981,0,0,0-.32421,3.9414l-.67969,3.8711c-1.71091,18.266-26.461,25.852-38.137,11.773Zm38.566,15.773h.0039A37.73767,37.73767,0,0,0,71.648,204.7038c13.41,19.711,46.566,19.664,60.023.03125,13.441,19.699,46.594,19.625,60.027-.05859,8.45309,12.594,24.086,16.18,38.414,15.07l.00391-.00391a37.456,37.456,0,0,0,29.758-14.863,37.4529,37.4529,0,0,0,29.758,14.863c14.344,1.1133,29.992-2.4922,38.441-15.102,13.465,19.781,46.586,19.773,60.016.02343,13.496,19.75,46.582,19.797,59.977-.09765a37.76289,37.76289,0,0,0,7.93359,7.76559v243.66h-226.17v-196.12a7.87449,7.87449,0,0,0-7.875-7.875h-118.08a7.87448,7.87448,0,0,0-7.875,7.875v196.12h-32.25Zm150.33,243.63h-102.32V267.74h102.33Zm289.93,48h-488.25V471.74h488.25Z" fill="#fff"/>
        <path d="M223.9057,87.71571h28.098v28.098a7.875,7.875,0,0,0,15.75,0V87.7157h28.098a7.875,7.875,0,0,0,0-15.75h-28.098V43.8717a7.875,7.875,0,1,0-15.75,0v28.094h-28.098C213.6127,72.01257,213.6127,87.6727,223.9057,87.71571Z" fill="#fff"/>
        <path d="M271.8757,399.75571h144a7.87449,7.87449,0,0,0,7.875-7.875v-132a7.8745,7.8745,0,0,0-7.875-7.875h-144a7.877,7.877,0,0,0-7.875,7.875v132A7.877,7.877,0,0,0,271.8757,399.75571Zm7.875-132h128.25v116.25h-128.25Z" fill="#fff"/>
      </g>
    </g>
  </g>
</svg>
