<svg xmlns="http://www.w3.org/2000/svg" width="504.01573" height="407.78717" viewBox="0 0 504.01573 407.78717">
  <g id="Layer_2" data-name="Layer 2">
    <g id="Layer_1-2" data-name="Layer 1">
      <g>
        <path d="M75.3,118.60716a75.17,75.17,0,0,0,.617,106.343l10.527-10.641a60.2296,60.2296,0,0,1-.508-85.231Z" fill="#003554"/>
        <path d="M52.68,261.18716c-48.832-49.895-50.512-129.64-3.80859-181.5l-11.09-10.023c-51.965,57.734-50.117,146.44,4.2578,201.99Z" fill="#003554"/>
        <path d="M251.98,407.78717a50.73681,50.73681,0,0,0,50.68-50.68c0-.83985-.11328-1.73441-.11328-2.57419h103.49V299.037h-30.969l.00391-125.21a123.34474,123.34474,0,0,0-97.551-120.46,32.81607,32.81607,0,1,0-51.06964,0A123.33892,123.33892,0,0,0,128.9,173.827v125.21H97.931v55.496h103.49c-.05469.83984-.11328,1.67969-.11328,2.57419a50.73087,50.73087,0,0,0,50.676,50.68Zm-139.11-93.797h30.969v-140.17a108.14,108.14,0,1,1,216.28,0v140.17h30.969v25.594l-278.21-.00391Zm139.11-299.04a17.863,17.863,0,1,1-17.863,17.863A17.876,17.876,0,0,1,251.98,14.95016Zm-35.727,342.16c0-.83985.05469-1.73441.11328-2.57419h71.23c.05469.83984.11329,1.67969.11329,2.57419a35.72851,35.72851,0,0,1-71.457,0Z" fill="#003554"/>
        <path d="M428.04,224.94714a75.17008,75.17008,0,0,0,.617-106.343l-10.641,10.527a60.22965,60.22965,0,0,1-.508,85.231Z" fill="#003554"/>
        <path d="M455.09,79.68715c46.703,51.855,45.023,131.6-3.8086,181.5l10.695,10.473c54.375-55.551,56.223-144.26,4.25781-201.99Z" fill="#003554"/>
      </g>
    </g>
  </g>
</svg>
