<svg xmlns="http://www.w3.org/2000/svg" width="403.20879" height="515.2083" viewBox="0 0 403.20879 515.2083">
  <g id="Layer_2" data-name="Layer 2">
    <g id="Layer_1-2" data-name="Layer 1">
      <g>
        <path d="M403.20879,23.9144A23.97966,23.97966,0,0,0,379.29442,0h-355.38A23.97971,23.97971,0,0,0,0,23.9144v432.38a23.97971,23.97971,0,0,0,23.91441,23.91439h4.08591v29.398a5.60139,5.60139,0,0,0,5.6015,5.60151h336a5.60144,5.60144,0,0,0,5.6015-5.60151v-29.398h4.08588a23.97966,23.97966,0,0,0,23.91437-23.91439Zm-379.29,445.09a12.7117,12.7117,0,0,1-12.711-12.711V23.9134a12.71169,12.71169,0,0,1,12.711-12.711h240.8v457.8Zm340.09,35h-324.8v-23.797h324.8Zm28-47.711a12.71169,12.71169,0,0,1-12.711,12.711h-103.26v-457.8h103.26a12.7117,12.7117,0,0,1,12.711,12.711Z" fill="#fff"/>
        <path d="M232.01881,50.7394h-187.99a5.59985,5.59985,0,0,0-5.5977,5.5977v289.36a5.60133,5.60133,0,0,0,5.59759,5.59759h187.99a5.60133,5.60133,0,0,0,5.6015-5.59759v-289.36a5.60134,5.60134,0,0,0-5.6015-5.5976Zm-121.41,289.35h-26.602v-32.984h26.543Zm81.426,0h-26.602v-32.984h26.602Zm34.383,0h-23.184v-38.586a5.60133,5.60133,0,0,0-5.6015-5.59759h-37.801a5.59982,5.59982,0,0,0-5.59768,5.59768v38.586h-32.426v-38.586A5.60133,5.60133,0,0,0,116.21,295.9059H78.409a5.60061,5.60061,0,0,0-5.60159,5.59768v38.586h-23.184v-55.496h176.79Zm-142.41-66.695v-32.984h26.543v32.984Zm81.367,0,.00391-32.984h26.602v32.984Zm60.984,0h-23.125v-38.586a5.60133,5.60133,0,0,0-5.6015-5.59759h-37.801a5.59732,5.59732,0,0,0-5.59768,5.59769v38.586h-32.426v-38.586a5.60133,5.60133,0,0,0-5.59759-5.5976H78.409a5.59812,5.59812,0,0,0-5.60159,5.59769v38.586h-23.184v-66.191h176.79Zm-142.35-77.395v-33.262h26.543l.00391,33.262Zm81.367,0,.0039-33.262h26.602l-.0039,33.262Zm60.984,0h-23.125v-38.863a5.60136,5.60136,0,0,0-5.6015-5.5976h-37.801a5.59734,5.59734,0,0,0-5.59769,5.5977v38.863h-32.426v-38.863a5.60135,5.60135,0,0,0-5.5976-5.5976h-37.801a5.59811,5.59811,0,0,0-5.60159,5.5977v38.863h-23.184v-66.805h176.79Zm-142.35-78.008v-32.984h26.543v32.984Zm81.367,0,.0039-32.984h26.602v32.984Zm60.984,0h-23.125v-38.582a5.60134,5.60134,0,0,0-5.6015-5.6015h-37.801a5.60066,5.60066,0,0,0-5.59769,5.6016v38.586l-32.426-.00391v-38.582a5.60136,5.60136,0,0,0-5.5976-5.6015h-37.801a5.60144,5.60144,0,0,0-5.6016,5.6016v38.586l-23.184-.00391v-56h176.79Z" fill="#fff"/>
        <path d="M182.7888,375.20241H93.19072a5.5981,5.5981,0,0,0-5.60159,5.59768v58.801a5.60134,5.60134,0,0,0,5.6015,5.6015h89.59808a5.60134,5.60134,0,0,0,5.6015-5.6015v-58.801a5.59467,5.59467,0,0,0-5.6015-5.59759Zm-5.60159,58.91H98.7892v-47.711h78.398Z" fill="#fff"/>
        <path d="M368.26878,103.4924h-65.855a5.60143,5.60143,0,0,0-5.60159,5.60159v87.863a5.60134,5.60134,0,0,0,5.6015,5.60151h65.855a5.60139,5.60139,0,0,0,5.6015-5.60151V109.094a5.60139,5.60139,0,0,0-5.6015-5.6015Zm-5.60159,87.863-54.656.00391v-76.664h54.77Z" fill="#fff"/>
        <path d="M368.26878,290.64241h-65.855a5.60143,5.60143,0,0,0-5.60159,5.60159v53.871a5.60134,5.60134,0,0,0,5.6015,5.60151h65.855a5.60139,5.60139,0,0,0,5.6015-5.60151V296.244a5.60138,5.60138,0,0,0-5.6015-5.6015Zm-5.60159,53.871h-54.656v-42.672h54.77Z" fill="#fff"/>
        <path d="M368.26878,224.9024h-65.855a5.6006,5.6006,0,0,0-5.60159,5.5977v36.738a5.59467,5.59467,0,0,0,5.6015,5.5976h65.855a5.59472,5.59472,0,0,0,5.6015-5.5976v-36.738a5.60138,5.60138,0,0,0-5.6015-5.59759Zm-5.60159,36.734h-54.656v-25.535h54.77Z" fill="#fff"/>
      </g>
    </g>
  </g>
</svg>
