<svg xmlns="http://www.w3.org/2000/svg" width="511.58002" height="359.34201" viewBox="0 0 511.58002 359.34201">
  <g id="Layer_2" data-name="Layer 2">
    <g id="Layer_1-2" data-name="Layer 1">
      <g>
        <path d="M259.582.002H255.5C158.668,1.17,67.67,39.084,0,106.752l33.25,33.25c121.33-121.91,325.5-123.66,445.08-4.082l33.25-33.25C444.498,36.752,355.25,0,259.58,0Z" fill="#003554"/>
        <path d="M85.172,191.922l33.25,33.25c77-77,200.08-78.168,274.75-3.5l33.25-33.25c-45.5-45.5-106.17-70-170.92-68.832A246.305,246.305,0,0,0,85.172,191.922Z" fill="#003554"/>
        <path d="M166.832,273.592l33.25,33.25c31.5-31.5,82.25-32.668,111.42-3.5l33.25-33.25c-48.418-47.836-128.33-46.086-177.92,3.5Z" fill="#003554"/>
        <path d="M225.752,329.592l29.75,29.75,28-28C264.834,312.674,240.334,314.424,225.752,329.592Z" fill="#003554"/>
      </g>
    </g>
  </g>
</svg>
