<?xml version="1.0" encoding="utf-8"?>
<!-- Generator: Adobe Illustrator 24.1.0, SVG Export Plug-In . SVG Version: 6.00 Build 0)  -->
<svg version="1.1" id="Layer_1" xmlns="http://www.w3.org/2000/svg" xmlns:xlink="http://www.w3.org/1999/xlink" x="0px" y="0px"
	 viewBox="0 0 700 700" style="enable-background:new 0 0 700 700;" xml:space="preserve">
<style type="text/css">
	.st0{fill:#FFFFFF;}
</style>
<g>
	<path class="st0" d="M590.3,71.5c0-7.6-3-14.8-8.4-20.1c-5.3-5.3-12.6-8.4-20.1-8.4H138.2c-7.6,0-14.8,3-20.1,8.4
		c-5.3,5.3-8.4,12.6-8.4,20.1v515.4c0,7.6,3,14.8,8.4,20.1c5.3,5.3,12.6,8.4,20.1,8.4h4.9v35c0,1.8,0.7,3.5,2,4.7c1.3,1.3,3,2,4.7,2
		h400.5c1.8,0,3.5-0.7,4.7-2c1.3-1.3,2-3,2-4.7v-35h4.9h0c7.6,0,14.8-3,20.1-8.4c5.3-5.3,8.4-12.6,8.4-20.1L590.3,71.5z M138.2,602
		c-8.4,0-15.2-6.8-15.2-15.2V71.4c0-8.4,6.8-15.2,15.2-15.2h287V602L138.2,602z M543.6,643.7H156.4v-28.4h387.1V643.7z M577,586.8
		c0,8.4-6.8,15.2-15.2,15.2H438.7V56.3h123.1c8.4,0,15.2,6.8,15.2,15.2V586.8z"/>
	<path class="st0" d="M386.3,103.4H162.2c-3.7,0-6.7,3-6.7,6.7V455c0,1.8,0.7,3.5,2,4.7c1.3,1.3,2.9,2,4.7,2h224.1
		c1.8,0,3.5-0.7,4.7-2c1.3-1.3,2-2.9,2-4.7V110.1c0-1.8-0.7-3.5-2-4.7C389.7,104.1,388,103.4,386.3,103.4L386.3,103.4z M241.5,448.3
		h-31.7V409h31.6L241.5,448.3z M338.6,448.3h-31.7V409h31.7V448.3z M379.6,448.3h-27.6v-46c0-1.8-0.7-3.5-2-4.7c-1.3-1.3-3-2-4.7-2
		h-45.1c-3.7,0-6.7,3-6.7,6.7v46h-38.7v-46c0-1.8-0.7-3.5-2-4.7c-1.3-1.3-2.9-2-4.7-2h-45.1c-3.7,0-6.7,3-6.7,6.7v46h-27.6v-66.1
		h210.7L379.6,448.3z M209.8,368.8v-39.3h31.6v39.3H209.8z M306.8,368.8l0-39.3h31.7v39.3H306.8z M379.5,368.8h-27.6v-46
		c0-1.8-0.7-3.5-2-4.7c-1.3-1.3-3-2-4.7-2h-45.1c-3.7,0-6.7,3-6.7,6.7v46h-38.7v-46c0-1.8-0.7-3.5-2-4.7c-1.3-1.3-2.9-2-4.7-2h-45.1
		c-3.7,0-6.7,3-6.7,6.7v46h-27.6v-78.9h210.7L379.5,368.8z M209.8,276.6v-39.6h31.6l0,39.6H209.8z M306.8,276.6l0-39.6h31.7l0,39.6
		H306.8z M379.5,276.6h-27.6v-46.3c0-1.8-0.7-3.5-2-4.7c-1.3-1.3-3-2-4.7-2h-45.1c-3.7,0-6.7,3-6.7,6.7v46.3h-38.7v-46.3
		c0-1.8-0.7-3.5-2-4.7c-1.3-1.3-2.9-2-4.7-2h-45.1c-3.7,0-6.7,3-6.7,6.7v46.3h-27.6v-79.6h210.7L379.5,276.6z M209.8,183.6v-39.3
		h31.6v39.3H209.8z M306.8,183.6l0-39.3h31.7v39.3H306.8z M379.5,183.6h-27.6v-46c0-1.8-0.7-3.5-2-4.7c-1.3-1.3-3-2-4.7-2h-45.1
		c-3.7,0-6.7,3-6.7,6.7v46l-38.7,0v-46c0-1.8-0.7-3.5-2-4.7c-1.3-1.3-2.9-2-4.7-2h-45.1c-3.7,0-6.7,3-6.7,6.7v46l-27.6,0v-66.7
		h210.7L379.5,183.6z"/>
	<path class="st0" d="M327.6,490.2H220.8h0c-3.7,0-6.7,3-6.7,6.7v70.1c0,1.8,0.7,3.5,2,4.7c1.3,1.3,2.9,2,4.7,2h106.8h0
		c1.8,0,3.5-0.7,4.7-2c1.3-1.3,2-3,2-4.7v-70.1c0-1.8-0.7-3.5-2-4.7C331,490.9,329.3,490.2,327.6,490.2L327.6,490.2z M320.9,560.4
		h-93.4v-56.9h93.4V560.4z"/>
	<path class="st0" d="M548.7,166.3h-78.5c-3.7,0-6.7,3-6.7,6.7v104.7c0,1.8,0.7,3.5,2,4.7c1.3,1.3,3,2,4.7,2h78.5
		c1.8,0,3.5-0.7,4.7-2c1.2-1.3,2-3,2-4.7V173c0-1.8-0.7-3.5-2-4.7C552.1,167,550.4,166.3,548.7,166.3L548.7,166.3z M542,271l-65.1,0
		v-91.4h65.3L542,271z"/>
	<path class="st0" d="M548.7,389.4h-78.5c-3.7,0-6.7,3-6.7,6.7v64.2c0,1.8,0.7,3.5,2,4.7c1.3,1.3,3,2,4.7,2h78.5
		c1.8,0,3.5-0.7,4.7-2c1.2-1.3,2-3,2-4.7v-64.2c0-1.8-0.7-3.5-2-4.7C552.1,390.1,550.4,389.4,548.7,389.4L548.7,389.4z M542,453.6
		h-65.1v-50.9h65.3L542,453.6z"/>
	<path class="st0" d="M548.7,311h-78.5c-3.7,0-6.7,3-6.7,6.7v43.8c0,1.8,0.7,3.5,2,4.7c1.3,1.2,3,2,4.7,2h78.5c1.8,0,3.5-0.7,4.7-2
		c1.2-1.3,2-3,2-4.7v-43.8c0-1.8-0.7-3.5-2-4.7C552.1,311.7,550.4,311,548.7,311L548.7,311z M542,354.8h-65.1v-30.4h65.3L542,354.8z
		"/>
</g>
</svg>
